<?xml version="1.0" encoding="iso-8859-1"?>
<!-- Generator: Adobe Illustrator 18.0.0, SVG Export Plug-In . SVG Version: 6.00 Build 0)  -->
<!DOCTYPE svg PUBLIC "-//W3C//DTD SVG 1.1//EN" "http://www.w3.org/Graphics/SVG/1.1/DTD/svg11.dtd">
<svg version="1.1" xmlns="http://www.w3.org/2000/svg" xmlns:xlink="http://www.w3.org/1999/xlink" x="0px" y="0px"
	 viewBox="0 0 325 325" style="enable-background:new 0 0 325 325;" xml:space="preserve">
<g id="API">
	<g id="API_1_">
		<g>
			<path style="fill:#00853f;" d="M305,0H20C8.954,0,0,8.954,0,20v285c0,11.046,8.954,20,20,20h285c11.046,0,20-8.954,20-20V20
				C325,8.954,316.046,0,305,0z M112.614,196.094l-5.125-14.125h-35.75l-5.25,14.125h-20.25l32.25-83.375h22.25l32.125,83.375
				H112.614z M190.499,166.469H169.25v29.625H151.5v-83.375h38.999c18.125,0,28,12.25,28,26.875
				C218.499,154.094,208.499,166.469,190.499,166.469z M257.011,196.094h-17.75v-83.375h17.75V196.094z M76.614,166.344h26
				l-13-35.875L76.614,166.344z M188.124,128.344H169.25v22.5h18.874c7,0,12.25-4.375,12.25-11.25
				C200.374,132.594,195.124,128.344,188.124,128.344z"/>
		</g>
	</g>
</g>
<g id="Layer_1">
</g>
</svg>
